<svg xmlns="http://www.w3.org/2000/svg" viewBox="0 0 960 540" role="img" aria-labelledby="title desc">
  <title id="title">Auswertung mit Schuldner-Tabs</title>
  <desc id="desc">Illustration einer Auswertungsseite mit Tabs pro Schuldner und Kategorien im Inhalt.</desc>
  <defs>
    <linearGradient id="bg2" x1="0" y1="0" x2="1" y2="1">
      <stop offset="0%" stop-color="#fff7ed" />
      <stop offset="100%" stop-color="#ecfeff" />
    </linearGradient>
    <linearGradient id="bar" x1="0" y1="0" x2="1" y2="0">
      <stop offset="0%" stop-color="#06b6d4" />
      <stop offset="100%" stop-color="#8b5cf6" />
    </linearGradient>
  </defs>
  <rect width="960" height="540" rx="32" fill="url(#bg2)" />
  <rect x="58" y="52" width="844" height="74" rx="18" fill="#ffffff" stroke="#d8d7e3" />
  <rect x="82" y="74" width="124" height="24" rx="12" fill="#0f172a" opacity="0.08" />
  <rect x="220" y="74" width="118" height="24" rx="12" fill="#7c3aed" opacity="0.18" />
  <rect x="352" y="74" width="122" height="24" rx="12" fill="#0f172a" opacity="0.08" />
  <rect x="490" y="74" width="134" height="24" rx="12" fill="#0f172a" opacity="0.08" />
  <rect x="638" y="74" width="116" height="24" rx="12" fill="#0f172a" opacity="0.08" />
  <rect x="768" y="74" width="108" height="24" rx="12" fill="#0f172a" opacity="0.08" />

  <rect x="58" y="156" width="844" height="314" rx="24" fill="#ffffff" stroke="#d8d7e3" />
  <rect x="84" y="184" width="210" height="18" rx="9" fill="#0f172a" opacity="0.84" />
  <rect x="84" y="220" width="368" height="18" rx="9" fill="#cbd5e1" />
  <rect x="84" y="252" width="728" height="16" rx="8" fill="#e2e8f0" />
  <rect x="84" y="286" width="728" height="16" rx="8" fill="#e2e8f0" />
  <rect x="84" y="320" width="728" height="16" rx="8" fill="#e2e8f0" />
  <rect x="84" y="354" width="728" height="16" rx="8" fill="#e2e8f0" />
  <rect x="84" y="388" width="728" height="16" rx="8" fill="#e2e8f0" />

  <rect x="652" y="218" width="160" height="16" rx="8" fill="url(#bar)" />
  <rect x="652" y="252" width="118" height="16" rx="8" fill="url(#bar)" opacity="0.84" />
  <rect x="652" y="286" width="188" height="16" rx="8" fill="url(#bar)" opacity="0.68" />
  <rect x="652" y="320" width="142" height="16" rx="8" fill="url(#bar)" opacity="0.56" />
  <rect x="652" y="354" width="92" height="16" rx="8" fill="url(#bar)" opacity="0.44" />
  <rect x="652" y="388" width="166" height="16" rx="8" fill="url(#bar)" opacity="0.32" />
</svg>
