<svg width="960" height="520" viewBox="0 0 960 520" fill="none" xmlns="http://www.w3.org/2000/svg">
  <rect width="960" height="520" rx="18" fill="#f8fafc"/>
  <rect x="42" y="36" width="876" height="448" rx="14" fill="#ffffff" stroke="#cbd5e1"/>
  <text x="82" y="86" fill="#312e81" font-family="Arial, sans-serif" font-size="32" font-weight="700">Dashboard</text>
  <rect x="82" y="122" width="150" height="100" rx="8" fill="#f0f9ff" stroke="#bae6fd"/>
  <text x="106" y="156" fill="#0369a1" font-family="Arial, sans-serif" font-size="14" font-weight="700">Offen</text>
  <text x="106" y="194" fill="#312e81" font-family="Arial, sans-serif" font-size="30" font-weight="700">342,50 EUR</text>
  <rect x="252" y="122" width="150" height="100" rx="8" fill="#f5f5f4" stroke="#e7e5e4"/>
  <text x="276" y="156" fill="#57534e" font-family="Arial, sans-serif" font-size="14" font-weight="700">Bezahlt</text>
  <text x="276" y="194" fill="#292524" font-family="Arial, sans-serif" font-size="30" font-weight="700">118,00 EUR</text>
  <rect x="422" y="122" width="150" height="100" rx="8" fill="#fff1f2" stroke="#fecdd3"/>
  <text x="446" y="156" fill="#be123c" font-family="Arial, sans-serif" font-size="14" font-weight="700">Ich schulde</text>
  <text x="446" y="194" fill="#be123c" font-family="Arial, sans-serif" font-size="30" font-weight="700">64,00 EUR</text>
  <rect x="592" y="122" width="150" height="100" rx="8" fill="#fffbeb" stroke="#fde68a"/>
  <text x="616" y="156" fill="#b45309" font-family="Arial, sans-serif" font-size="14" font-weight="700">Loeschantraege</text>
  <text x="616" y="194" fill="#b45309" font-family="Arial, sans-serif" font-size="30" font-weight="700">2</text>
  <rect x="82" y="254" width="390" height="178" rx="10" fill="#ffffff" stroke="#e7e5e4"/>
  <text x="108" y="292" fill="#1c1917" font-family="Arial, sans-serif" font-size="20" font-weight="700">Mir schuldet jemand</text>
  <line x1="108" y1="320" x2="446" y2="320" stroke="#e7e5e4"/>
  <text x="108" y="352" fill="#1c1917" font-family="Arial, sans-serif" font-size="16" font-weight="700">Alex</text>
  <text x="108" y="376" fill="#78716c" font-family="Arial, sans-serif" font-size="14">Konzert · Tickets</text>
  <text x="348" y="364" fill="#0369a1" font-family="Arial, sans-serif" font-size="18" font-weight="700">89,00 EUR</text>
  <line x1="108" y1="394" x2="446" y2="394" stroke="#e7e5e4"/>
  <text x="108" y="420" fill="#1c1917" font-family="Arial, sans-serif" font-size="16" font-weight="700">Mara</text>
  <text x="348" y="420" fill="#0369a1" font-family="Arial, sans-serif" font-size="18" font-weight="700">24,50 EUR</text>
  <rect x="506" y="254" width="354" height="178" rx="10" fill="#fff1f2" stroke="#fecdd3"/>
  <text x="532" y="292" fill="#9f1239" font-family="Arial, sans-serif" font-size="20" font-weight="700">Loeschantrag</text>
  <text x="532" y="330" fill="#1c1917" font-family="Arial, sans-serif" font-size="16" font-weight="700">Tom moechte loeschen</text>
  <text x="532" y="358" fill="#57534e" font-family="Arial, sans-serif" font-size="14">Grund: Betrag wurde doppelt erfasst.</text>
  <rect x="532" y="386" width="116" height="34" rx="6" fill="#ffffff" stroke="#d6d3d1"/>
  <text x="561" y="408" fill="#44403c" font-family="Arial, sans-serif" font-size="13" font-weight="700">Ablehnen</text>
  <rect x="662" y="386" width="100" height="34" rx="6" fill="#e11d48"/>
  <text x="688" y="408" fill="#ffffff" font-family="Arial, sans-serif" font-size="13" font-weight="700">Loeschen</text>
</svg>
