<svg xmlns="http://www.w3.org/2000/svg" viewBox="0 0 960 540" role="img" aria-labelledby="title desc">
  <title id="title">Schuldenansicht mit Tabs</title>
  <desc id="desc">Illustration einer tabbasierten Schuldenansicht mit Schuldner-Tabs, Tabelle und Aktionsspalte.</desc>
  <defs>
    <linearGradient id="bg" x1="0" y1="0" x2="1" y2="1">
      <stop offset="0%" stop-color="#f8f5ff" />
      <stop offset="100%" stop-color="#eefbff" />
    </linearGradient>
    <linearGradient id="accent" x1="0" y1="0" x2="1" y2="0">
      <stop offset="0%" stop-color="#8b5cf6" />
      <stop offset="100%" stop-color="#06b6d4" />
    </linearGradient>
  </defs>
  <rect width="960" height="540" rx="32" fill="url(#bg)" />
  <rect x="58" y="52" width="844" height="76" rx="18" fill="#111827" opacity="0.96" />
  <rect x="84" y="74" width="148" height="28" rx="14" fill="#7c3aed" />
  <rect x="246" y="74" width="96" height="28" rx="14" fill="#1f2937" />
  <rect x="354" y="74" width="112" height="28" rx="14" fill="#1f2937" />
  <rect x="478" y="74" width="116" height="28" rx="14" fill="#1f2937" />
  <rect x="608" y="74" width="96" height="28" rx="14" fill="#1f2937" />
  <rect x="718" y="74" width="142" height="28" rx="14" fill="#1f2937" />

  <rect x="58" y="160" width="844" height="306" rx="24" fill="#ffffff" stroke="#d8d7e3" />
  <rect x="82" y="186" width="188" height="18" rx="9" fill="#7c3aed" opacity="0.14" />
  <rect x="82" y="222" width="796" height="54" rx="14" fill="#f8fafc" />
  <rect x="82" y="290" width="796" height="54" rx="14" fill="#ffffff" stroke="#eef2f7" />
  <rect x="82" y="358" width="796" height="54" rx="14" fill="#f8fafc" />

  <rect x="108" y="236" width="130" height="12" rx="6" fill="#0f172a" opacity="0.82" />
  <rect x="108" y="254" width="88" height="10" rx="5" fill="#64748b" opacity="0.7" />
  <rect x="386" y="236" width="180" height="12" rx="6" fill="#0f172a" opacity="0.82" />
  <rect x="386" y="254" width="116" height="10" rx="5" fill="#64748b" opacity="0.7" />
  <rect x="690" y="236" width="112" height="12" rx="6" fill="#7c3aed" />
  <rect x="706" y="302" width="96" height="12" rx="6" fill="#0f172a" opacity="0.82" />
  <rect x="706" y="370" width="92" height="12" rx="6" fill="#0f172a" opacity="0.82" />
  <rect x="108" y="304" width="108" height="12" rx="6" fill="#0f172a" opacity="0.82" />
  <rect x="108" y="372" width="98" height="12" rx="6" fill="#0f172a" opacity="0.82" />

  <rect x="552" y="226" width="184" height="20" rx="10" fill="url(#accent)" opacity="0.9" />
  <rect x="552" y="294" width="112" height="20" rx="10" fill="#06b6d4" opacity="0.88" />
  <rect x="552" y="362" width="146" height="20" rx="10" fill="#8b5cf6" opacity="0.85" />
</svg>
