<svg xmlns="http://www.w3.org/2000/svg" viewBox="0 0 960 540" role="img" aria-labelledby="title desc">
  <title id="title">Summen pro Schuldner</title>
  <desc id="desc">Illustration der offenen Summen pro Schuldner.</desc>
  <rect width="960" height="540" fill="#f8fafc"/>
  <text x="72" y="74" fill="#312e81" font-family="Arial, sans-serif" font-size="34" font-weight="700">Offene Schulden an mich</text>
  <g font-family="Arial, sans-serif">
    <rect x="72" y="112" width="260" height="110" rx="8" fill="#f5f5f4" stroke="#d6d3d1"/>
    <text x="98" y="150" fill="#1c1917" font-size="18" font-weight="700">Max Mustermann</text>
    <text x="98" y="174" fill="#78716c" font-size="13">max@example.com</text>
    <text x="252" y="150" fill="#0369a1" font-size="20" font-weight="700" text-anchor="end">84,00 EUR</text>
    <text x="98" y="202" fill="#57534e" font-size="14">2 offene Eintraege</text>
    <rect x="360" y="112" width="260" height="110" rx="8" fill="#f5f5f4" stroke="#d6d3d1"/>
    <text x="386" y="150" fill="#1c1917" font-size="18" font-weight="700">Lisa Schmidt</text>
    <text x="386" y="174" fill="#78716c" font-size="13">lisa@example.com</text>
    <text x="540" y="150" fill="#0369a1" font-size="20" font-weight="700" text-anchor="end">31,50 EUR</text>
    <text x="386" y="202" fill="#57534e" font-size="14">1 offener Eintrag</text>
    <rect x="648" y="112" width="260" height="110" rx="8" fill="#f5f5f4" stroke="#d6d3d1"/>
    <text x="674" y="150" fill="#1c1917" font-size="18" font-weight="700">Jonas Weber</text>
    <text x="674" y="174" fill="#78716c" font-size="13">jonas@example.com</text>
    <text x="828" y="150" fill="#0369a1" font-size="20" font-weight="700" text-anchor="end">18,00 EUR</text>
    <text x="674" y="202" fill="#57534e" font-size="14">1 offener Eintrag</text>
    <rect x="72" y="270" width="836" height="188" rx="8" fill="#ffffff" stroke="#d6d3d1"/>
    <text x="100" y="316" fill="#78716c" font-size="14" font-weight="700">Schuldner</text>
    <text x="338" y="316" fill="#78716c" font-size="14" font-weight="700">Zweck</text>
    <text x="560" y="316" fill="#78716c" font-size="14" font-weight="700">Kategorie</text>
    <text x="846" y="316" fill="#78716c" font-size="14" font-weight="700" text-anchor="end">Betrag</text>
    <line x1="72" y1="334" x2="908" y2="334" stroke="#e7e5e4"/>
    <text x="100" y="372" fill="#1c1917" font-size="15" font-weight="700">Max Mustermann</text>
    <text x="338" y="372" fill="#57534e" font-size="15">Konzertticket</text>
    <text x="560" y="372" fill="#57534e" font-size="15">Konzert</text>
    <text x="846" y="372" fill="#0369a1" font-size="15" font-weight="700" text-anchor="end">42,00 EUR</text>
    <line x1="72" y1="398" x2="908" y2="398" stroke="#f5f5f4"/>
    <text x="100" y="434" fill="#1c1917" font-size="15" font-weight="700">Lisa Schmidt</text>
    <text x="338" y="434" fill="#57534e" font-size="15">Abendessen</text>
    <text x="560" y="434" fill="#57534e" font-size="15">Essen</text>
    <text x="846" y="434" fill="#0369a1" font-size="15" font-weight="700" text-anchor="end">31,50 EUR</text>
  </g>
</svg>
