<svg width="960" height="420" viewBox="0 0 960 420" fill="none" xmlns="http://www.w3.org/2000/svg">
  <rect width="960" height="420" rx="18" fill="#fff7ed"/>
  <text x="62" y="72" fill="#7c2d12" font-family="Arial, sans-serif" font-size="34" font-weight="700">Loeschantrag mit Freigabe</text>
  <rect x="72" y="130" width="210" height="142" rx="12" fill="#ffffff" stroke="#fed7aa"/>
  <text x="104" y="172" fill="#9a3412" font-family="Arial, sans-serif" font-size="20" font-weight="700">1. Schuldner</text>
  <text x="104" y="208" fill="#57534e" font-family="Arial, sans-serif" font-size="15">Beantragt Loeschung</text>
  <text x="104" y="232" fill="#57534e" font-family="Arial, sans-serif" font-size="15">mit Begruendung.</text>
  <path d="M306 202H396" stroke="#fb923c" stroke-width="5" stroke-linecap="round"/>
  <path d="M384 188L404 202L384 216" stroke="#fb923c" stroke-width="5" stroke-linecap="round" stroke-linejoin="round"/>
  <rect x="430" y="130" width="210" height="142" rx="12" fill="#ffffff" stroke="#fed7aa"/>
  <text x="462" y="172" fill="#9a3412" font-family="Arial, sans-serif" font-size="20" font-weight="700">2. Dashboard</text>
  <text x="462" y="208" fill="#57534e" font-family="Arial, sans-serif" font-size="15">Besitzer sieht den</text>
  <text x="462" y="232" fill="#57534e" font-family="Arial, sans-serif" font-size="15">Antrag sofort.</text>
  <path d="M664 202H754" stroke="#fb923c" stroke-width="5" stroke-linecap="round"/>
  <path d="M742 188L762 202L742 216" stroke="#fb923c" stroke-width="5" stroke-linecap="round" stroke-linejoin="round"/>
  <rect x="788" y="130" width="110" height="142" rx="12" fill="#ffffff" stroke="#fed7aa"/>
  <text x="816" y="172" fill="#9a3412" font-family="Arial, sans-serif" font-size="20" font-weight="700">3.</text>
  <text x="816" y="208" fill="#57534e" font-family="Arial, sans-serif" font-size="15">OK oder</text>
  <text x="816" y="232" fill="#57534e" font-family="Arial, sans-serif" font-size="15">Ablehnen</text>
  <rect x="72" y="314" width="826" height="46" rx="8" fill="#431407"/>
  <text x="102" y="343" fill="#ffffff" font-family="Arial, sans-serif" font-size="16" font-weight="700">Direktes Loeschen durch Schuldner ist nicht moeglich.</text>
</svg>
